<?xml version="1.0" encoding="utf-8"?>
<!-- Generator: Adobe Illustrator 21.1.0, SVG Export Plug-In . SVG Version: 6.00 Build 0)  -->
<svg version="1.1" id="Layer_1" xmlns="http://www.w3.org/2000/svg" xmlns:xlink="http://www.w3.org/1999/xlink" x="0px" y="0px"
	 viewBox="0 0 3359 1001.9" style="enable-background:new 0 0 3359 1001.9;" xml:space="preserve">
<style type="text/css">
	.st0{fill:#FFFFFF;}
</style>
<g>
	<path class="st0" d="M597.3,864.1c-2.1-2.5-4.9-4.2-8.3-5c-3.4-0.8-6.4-0.7-9.1,0.3c-10.9,4.8-21.7,8.6-32.4,11.5
		c-10.7,2.9-21.9,5.1-33.7,6.7c-52.4,5.3-104.9,6.5-157.5,3.6c-52.6-2.9-105.2-6.3-157.9-10.4c-12.8-1.3-25.5-2.4-38.2-3.4
		c-12.6-1.1-25.4-2.2-38.2-3.5l41.8-86c14.5-29.1,29.1-57.8,43.8-86.2c14.7-28.3,158.9-284.3,175.3-311.5
		c7.4-12.3,15-24.5,22.9-36.7c7.9-12.1,16.3-23.6,25.3-34.4c1.1-1.3,3-3.5,5.5-6.5c2.5-3,5.3-5.9,8.3-8.8c3-2.8,6-5.1,8.9-6.7
		c2.9-1.6,5.2-1.7,6.8-0.1l0.5,0.6c3.3,4.3,6.7,5.9,10.1,4.9c3.4-1,6-3.2,7.8-6.6c1.8-3.4,2.5-7.5,2.4-12.4c-0.2-4.9-2-9.3-5.6-13.1
		c-3.9-3.8-8-6.2-12.3-7.2c-4.3-1-8.5-0.7-12.7,0.8c-4.2,1.5-8.3,3.7-12.3,6.6c-4.1,2.9-7.8,5.9-11.2,9
		c-9.4,9.2-18.4,19.4-26.9,30.8c-8.5,11.4-16.6,23.3-24.3,35.9c-7.7,12.5-15.1,25.4-22.1,38.5c-7,13.1-142.5,254.3-149.3,267
		c-14.6,27.5-28.9,55.1-42.9,82.7c-14,27.7-27.8,55.6-41.5,83.9c-4.6,8.9-8.9,17.7-13.1,26.6c-4.1,8.8-8.3,17.7-12.6,26.6L47,855.6
		c-13.4-1.6-23.8,1.2-31,8.4c-7.3,7.2-12,16.8-14.3,28.8c-2.3,12-2.3,25.1,0,39.3c2.3,14.2,6.2,27.4,11.9,39.8c1.8,4,3.9,8,6.5,12.2
		c2.5,4.1,5.4,7.7,8.6,10.8c3.2,3.1,6.6,5.2,10.2,6.4c3.6,1.2,7.2,0.7,11-1.6c2.9-1.8,5.6-4.4,8.1-7.9c2.5-3.4,4.8-7.2,7-11.2
		c2.2-4,4.2-8.1,6-12.3c1.8-4.2,3.6-8,5.2-11.4c5.4-10.6,10.7-21.1,15.9-31.7c5.2-10.6,10.4-21.1,15.5-31.6c4.3,0.6,8.6,1,13,1.3
		c4.4,0.3,8.8,0.8,13,1.3c39.3,3.7,78.5,7,117.4,9.9c39,2.9,78,5,117.2,6.2c18.8,0.9,37.4,1.3,55.8,1.4c18.3,0.1,36.9-0.3,55.6-1
		c16.6-0.2,33.8-1,51.4-2.3c17.6-1.3,34.4-5.9,50.2-13.9c2.7-1,5.5-2.5,8.6-4.5c3-2,5.4-4.5,7-7.5c3-4.3,4.4-8.2,4-11.6
		C600.7,869.6,599.4,866.6,597.3,864.1z M78.2,894.8c-6.2,12.2-12.3,25-18.2,38.2c-6,13.3-12.5,25.2-19.8,35.9
		c-2.9-2.3-5.4-5.6-7.4-10c-2.1-4.4-3.8-9.2-5.2-14.4c-1.4-5.2-2.6-10.4-3.5-15.4c-0.9-5.1-1.5-9.2-1.7-12.5
		c-2-21.6,5-31.6,20.8-30.1l37.5,3.2L78.2,894.8z"/>
	<path class="st0" d="M1840.7,102.1c-0.2,0-0.5,0.7-1,2.2l1.7-2.6C1841.1,101.8,1840.8,101.9,1840.7,102.1z"/>
	<path class="st0" d="M2241.1,359.1c3,2.9,8.1,4.1,15.3,3.6c3.9-0.2,8.7-0.9,14.4-2c5.7-1.1,12.7-2.6,21.1-4.5
		c0.7-0.2,1.6-0.5,2.5-0.6c0.9-0.2,1.8-0.4,2.7-0.6c1.2-0.3,2.5-0.6,3.8-0.8c1.3-0.3,2.7-0.6,4-0.9c11.6-2.6,22.3-4.7,32-6.3
		c9.7-1.6,18.3-3.1,26-4.4c1-0.3,2.1-0.4,3.1-0.5c1.1-0.1,2-0.2,2.9-0.5l-0.2,0c8.1-1.3,15.1-2.6,21.1-3.8c6-1.2,10.9-2.8,14.8-4.9
		c3.9-2.1,6.7-4.7,8.4-7.7c1.7-3.1,2.3-7.1,1.8-12.2c-0.6-4.7-1.5-8-2.8-10.1c-1.3-2.1-2.7-3.4-4.3-3.9c-1.6-0.5-3.3-0.4-5.1,0.2
		c-1.8,0.6-3.4,1.4-4.9,2.3c-0.7,0.3-1.4,0.4-1.9,0.6c-0.5,0.1-1.2,0.4-1.9,0.9c-1,0.7-2.6,1.4-4.6,2.3c-2.1,0.8-5.3,1.9-9.8,3.1
		c-4.5,1.2-10.4,2.5-17.8,3.9c-7.4,1.4-16.9,2.9-28.4,4.7c-15,2.2-27.5,3.7-37.4,4.8c-9.9,1-18.1,1.7-24.6,2.2
		c-7.9,0.5-13.4,0.6-16.6,0.4c-3.2-0.2-5.3-0.5-6.4-0.8l0.2,0.3c-0.9-0.3-1.7-0.5-2.2-0.5c-0.5,0-1,0.1-1.2,0.1
		c-3,0.2-5.5,2.4-7.5,6.6c-2,4.2-2.7,9.3-2,15.1C2236.2,351.5,2238.1,356.2,2241.1,359.1z"/>
	<path class="st0" d="M3358.1,438.4l0-0.3c-2.4-5.2-6.9-7.5-13.4-7.1c-2.9,0.2-6,0.9-9.4,2.1c-3.4,1.2-6.8,3.1-10.1,5.5
		c-4.2,3.1-7.9,5.9-11.2,8.4c-3.3,2.5-6.9,5.2-10.9,8.3c-3.8,2.9-8.1,6.2-13.1,10c-5,3.8-11.2,8.5-18.5,14
		c-7.8,5.8-17.1,12.7-28,20.8c-10.8,8-24.3,17.7-40.4,28.9c-8,5.6-16.6,11.6-25.9,17.9c-9.3,6.3-19.4,12.9-30.3,19.7
		c-5.5,3.6-11.2,7.1-16.9,10.4c-5.8,3.3-11.9,6.7-18.3,10.2c-3.4,1.8-6.7,3.6-9.9,5.2c-3.2,1.6-6.2,3-9,4.2
		c-0.2-5.7-0.1-11.3,0.2-16.7c0.3-5.4,0.7-10.8,1.1-16.2c0-0.2,0-0.5,0.1-0.9c0-0.4,0.1-0.8,0-1.2c0.5-6,1-11.7,1.5-17.3
		s1.1-11.1,1.8-16.7c1.4-11.5,2.9-22.8,4.4-33.7c1.6-10.9,3.3-22.5,5.3-34.7c0.6-2.3,1.1-4.8,1.3-7.4l1-6.5l0,0.3
		c0.4-2.7,0.9-5.4,1.3-8.1c0.4-2.7,0.9-5.5,1.5-8.4c0.3-2.3,0.7-4.5,1.2-6.8c0.5-2.3,0.8-4.5,1.2-6.8c2.3-4.8,4.5-9.8,6.7-14.8
		c2.2-5,4.4-10.2,6.6-15.4l0,0.3l3-6.6c9.1-20.6,17.3-40,24.6-58.1c7.3-18.1,13.8-35.2,19.6-51.1c5.8-15.9,11-30.8,15.4-44.7
		c4.5-13.9,8.5-26.9,12.2-38.9c3.5-11.9,6.6-23.4,9.4-34.6c2.8-11.2,5.2-21.5,7.1-30.8c2-9.3,3.6-18.7,5-28.2
		c1.4-9.5,2.2-18.4,2.6-26.8c0.2-4.1,0.2-8.6,0-13.5c-0.2-4.9-0.5-9.5-1.1-13.7c-0.6-4.7-1.7-9.8-3.4-15.3
		c-1.6-5.5-3.9-10.5-6.8-15.1c-1.3-2-2.8-3.7-4.3-5.1c-1.5-1.4-3.5-2.4-6-2.8l0,0.3c-2-0.5-3.9-0.5-5.6-0.1c-1.7,0.4-3.2,1-4.3,1.6
		l0.2-0.3c-1.8,1.1-3.3,2.4-4.8,3.8c-1.4,1.4-2.7,2.9-3.8,4.4c-0.7,1.1-1.6,2.7-2.6,4.8c-1.1,2.1-2.2,4.3-3.2,6.6l0-0.3
		c-1.5,2.8-2.9,5.9-4.2,9.3c-1.3,3.5-2.6,7-3.9,10.5l-0.2,0c-0.3,0.4-0.4,0.9-0.5,1.4c0,0.5-0.2,1-0.5,1.4l0,0.3
		c-5.7,16.9-11.4,35.4-17,55.5c-5.6,20.1-11.5,43.1-17.5,69c-9.9,42.1-18.5,82.9-25.7,122.3c-7.3,39.4-13.9,76.8-19.8,112.1
		c-0.4,0.8-0.6,1.5-0.6,1.9c-7.4,15.4-14.7,30.2-22.2,44.5c-7.4,14.3-14.6,27.5-21.5,39.8c-4.8,8.1-9.6,16-14.5,23.9
		c-4.9,7.9-9.8,15.5-14.7,22.8c-4.9,7.4-9.7,14.4-14.5,21c-4.7,6.6-9.3,12.5-13.6,17.7c-4.5,5.2-9.1,10-13.6,14.5
		c-4.6,4.5-8.7,8.2-12.5,11.1l-0.2,0c-4.3,3.3-8.7,5.1-13.1,5.4c-1.8,0.1-3.3-0.1-4.4-0.6l-0.1-1.2c-0.1-1.4,0-2.9,0.2-4.5
		c0.2-1.6,0.4-3.1,0.6-4.8c0.8-4.1,1.8-8.1,3-12c1.2-3.9,2.4-7.4,3.5-10.5l0-0.3c1.8-5,4-10.3,6.5-15.7c2.5-5.5,4.8-10.4,6.8-14.8
		c0.3-0.4,0.4-0.8,0.5-1.1c0.1-0.3,0.2-0.7,0.5-1.1l0.4-0.6c2.3-4.4,4.2-8.2,5.8-11.3c1.5-3.1,3.1-5.9,4.6-8.4
		c0.4-0.8,0.9-1.8,1.6-2.9c0.4-0.6,0.9-1.4,1.3-2.4c0.5-1,0.8-1.6,1.1-2.1c0.4-0.8,0.8-1.5,1.1-2.1c0.3-0.5,0.6-1,0.9-1.4
		c0.8-1.5,1.6-2.9,2.2-4.1c0.7-1.3,1.3-2.4,1.8-3.5c2-3.8,3.7-7.8,5.2-12c0.3-0.9,0.6-1.8,0.8-2.6c2.1-3.2,3.6-6.4,4.8-9.5
		c1.2-3.2,1.7-6.4,1.7-9.5c0-3.1-0.7-5.8-1.9-8.2l-0.2,0.3c-2.4-4.6-6.3-6.7-11.5-6.3c-2.7,0.2-5.8,1.1-9.1,2.7
		c-3.4,1.6-6.9,4-10.5,7.1c0.3-0.4,0.3-0.6,0.2-0.6c-0.1,0.4-0.3,0.7-0.6,1c-0.3,0.2-0.5,0.4-0.6,0.7c-0.1,0.2-0.4,0.3-0.4,0.3
		c-3.6,3.1-10.1,8.5-19.4,16.2c-9.4,7.7-22.7,17.5-40.2,29.2c-10.5,7.2-22.7,15.1-36.7,23.8c-14,8.6-30.5,18.1-49.5,28.5
		c-9.2,5.3-18.9,10.6-29.2,15.9c-10.3,5.3-21.1,10.7-32.6,16.1c-10.3,4.7-22.1,9.9-35.3,15.4c-13.2,5.5-26.9,10.5-41.2,14.8l0.2,0
		c-3,1-5.9,1.9-8.7,2.5c-2.8,0.7-5.6,1-8.1,1c-1.2-2-1.8-3.4-1.9-4.2c-1-4.2-1.8-8.5-2.4-12.7c-0.6-4.3-1-8.5-1.3-12.8
		c-0.2-2.9-0.3-6.1-0.5-9.6c-0.1-3.6-0.2-6.8,0-9.7c0.3-14.1,1-27.6,2-40.5c1-12.8,2-23.9,3.1-33.2l0,0.3c0.1-0.4,0.2-0.7,0.2-0.9
		c0-0.2,0-0.5,0.2-0.9c0.1-0.6,0.3-1.5,0.5-2.8c1.8-2.4,3.6-4.8,5.2-7.2c1.7-2.4,3.5-5.3,5.6-8.5c3.2-4.9,6.4-10.2,9.8-15.8
		s6.8-11.8,10.3-18.6c3.9-7.4,8.7-17.5,14.2-30.3c5.5-12.8,11.8-28.8,18.8-48.1c6.7-18.8,13.9-41.2,21.7-67.3
		c7.8-26,15.2-55.8,22.1-89.4c2.2-10.6,4.1-21,5.7-31.2c1.6-10.2,3.1-20,4.5-29.3c1.5-9.9,2.8-20.1,3.9-30.4
		c1.1-10.4,1.8-20.3,2.1-29.7c0.1-2.5,0.2-5.1,0.2-7.8c0-2.8-0.1-5.9-0.4-9.3c-0.1-3.5-0.3-7-0.8-10.5c-0.5-3.5-1.3-7.3-2.4-11.4
		c-0.8-2.4-1.8-5-3.2-7.8c-1.4-2.8-3.7-5.2-6.8-7.2c-1.6-0.9-3.2-1.6-5-2c-1.8-0.4-3.5-0.3-5.1,0.2c-1.2,0.3-2.4,0.8-3.5,1.6
		c-1.2,0.8-2.3,1.7-3.5,2.8c0,0.2-0.2,0.3-0.2,0.3l-0.4,0.3c-1.8,2.2-3.8,4.7-5.8,7.6c-2,2.9-3.6,5.5-4.6,7.8l0.4-0.3l-1.5,2.2
		c-6,12.2-11.7,25.7-16.9,40.5c-5.2,14.7-10.6,31.2-16.3,49.3c-8.1,27.1-14.8,50.7-19.9,70.9c-5.2,20.2-9.5,38-13.1,53.6
		c-3.5,15.8-6.6,30.6-9.3,44.4c-2.7,13.9-5.3,28-7.9,42.5c-2.6,14.3-5.2,29.9-7.9,47c-2.7,17-5.6,36.8-8.7,59.3
		c-0.1,0.2-0.4,0.3-0.4,0.3c-0.8,1.1-1.5,1.8-2,2.1c-0.4,0.3-0.8,0.6-1.2,0.9c-0.6,0.3-1.2,0.6-1.8,0.9c-1.7,1.1-3.3,2.2-4.8,3.2
		c-1.5,1-3,2.2-4.8,3.5c-2.3,1.8-5.3,4.2-9.1,7.2c-3.7,3-9.2,7.1-16.5,12.2l0.2,0c-5.8,4-13.7,9.4-23.7,16
		c-10,6.7-21.5,14-34.3,21.9c-6.6,4.1-14.2,8.7-22.9,13.8c-8.7,5.1-18.1,10.6-28.3,16.3c-10.2,5.7-20.8,11.6-32.1,17.6
		c-11.2,6-22.6,11.8-34.2,17.5c-7.5,3.5-15.2,7-23.1,10.5c-7.9,3.5-15.7,6.8-23.5,9.9c-7.8,3.1-15.3,6-22.6,8.6
		c-7.3,2.6-14.2,4.8-20.6,6.7c-8.9,2.4-17.7,4.5-26.2,6.2c-8.5,1.8-16.3,2.9-23.4,3.3c-6.9,0.4-13.7,0.2-20.3-0.6
		c-9-0.7-17.1-3.1-24.3-7.4c-3.2-2.1-6-4.4-8.4-7c-2.4-2.6-4.3-5.3-5.7-8.1c-1.4-2.6-2.4-5.4-3.1-8.6c-0.6-3.1-1.2-6.3-1.5-9.6
		c-0.2-3.3-0.3-6.4-0.2-9.5c0.1-3.1,0.3-6,0.6-8.9l-0.2,0c0.6-5.6,1.3-10.6,2.3-15.2c1-4.6,2-8.7,3-12.4l0,0.3c1-3.5,1.9-6.6,2.6-9
		c0.7-2.5,1.5-4.5,2.1-6c0.9-2.3,1.7-4.2,2.4-5.7c0.7-1.5,1.2-2.7,1.6-3.8c0.1-0.4,0.3-0.7,0.4-0.9c0.1-0.2,0.5-1.6,1.1-4.1l0,0.3
		c0.3-1,0.5-1.9,0.7-2.9c0.6-1.6,1.2-3.1,1.7-4.6c1.1-3.8,1.7-7.3,1.7-10.5c0-3.3-0.6-6-2-8.2c-1.5-2.4-3.5-3.8-5.9-4.4
		c-2.4-0.6-5-0.3-7.9,0.6c-0.3,0.1-0.6,0.2-0.9,0.3c-2-0.2-3.9,0.1-5.7,1c-1.9,0.9-3.7,2.4-5.4,4.3c-0.7,0.8-1.4,1.7-1.9,2.7
		c-1.7,1.5-3.5,3.1-5.2,4.8c-1.3,1.5-3.5,4-6.8,7.5c-3.3,3.5-7.7,8-13.2,13.7c-0.3,0.4-0.6,0.9-1.1,1.3c-0.4,0.4-0.8,0.9-1.1,1.3
		c-5.4,5.7-12.4,12.6-21,20.9c-8.6,8.3-18.8,17.6-30.4,28c-2.9,2.4-6.1,5.1-9.7,8.1c-3.6,3-7.4,6-11.2,9c-3.9,3-7.8,6-11.8,9
		c-4,3-7.8,5.7-11.4,8.2c-8.7,6.1-18.1,12-28.1,17.9c-10,5.8-20.8,11.1-32.3,15.7c-7.7,3.1-15.7,5.8-24.1,8.1
		c-8.4,2.3-17.4,3.7-26.9,4.3c-4.2,0.3-8.6,0.2-13.2-0.1c-4.6-0.3-9.3-0.9-14.2-1.6l0.2,0c-7.4-1.4-14.7-3.5-21.9-6.5
		c-7.2-2.9-14.2-6.8-20.9-11.7c-7.1-5.1-13.9-11.2-20.3-18.4c-6.4-7.2-12.3-15.2-17.7-24.1c-5.4-8.9-10.2-18.2-14.3-27.9
		c-4.1-9.8-7.4-19.3-10-28.5l-0.6-2.1l-0.3-1.5l-0.3-1.2c-1.9-4-3.5-7-4.7-9.1c-1.2-2.1-2.3-3.4-3.3-4.1c-1-0.6-2.1-0.8-3.1-0.4
		c-1.1,0.4-2.3,1-3.7,1.9c-0.4,0.4-0.9,0.8-1.5,1c-0.6,0.2-1.3,0.5-2.2,0.7l0.2,3.4l-0.7-3.3c-0.4,0.4-1.1,1-1.9,1.7
		c-0.9,0.7-1.5,1.2-1.9,1.6c-0.6,0-1,0.3-1.2,0.8c-0.2,0.5-0.4,1-0.7,1.4c-0.1,0.2-0.4,0.3-0.4,0.3c-0.2,0-0.3,0.1-0.4,0.3l0.6-1
		c-1.6,1.5-3.1,3-4.6,4.4c-1.5,1.4-3,2.9-4.6,4.4c-0.3,0.4-0.6,0.7-1.1,1c-0.4,0.2-0.8,0.6-1.1,1l-1.9,2c-2.3,2.4-4.5,4.6-6.6,6.7
		c-2.1,2.1-4.3,4.1-6.4,6.1c-11.1,11.1-21.3,21.3-30.4,30.6c-9.2,9.3-17.8,18-25.7,26.3c-4.4,4.6-8.5,8.8-12.3,12.7
		c-3.8,3.9-7.5,7.8-11.2,11.7c2.6-9,4.8-16.7,6.7-23.3c1.8-6.6,3.7-13.3,5.6-20.3c1.9-7,4-14.8,6.4-23.4c2.3-8.6,5.2-19.4,8.6-32.3
		c1.9-2.8,3.8-5.4,5.5-8c1.7-2.6,3.5-5.4,5.5-8.6l0.2-0.3c3.1-5.3,6.6-11.5,10.5-18.4c3.9-7,8.2-15.8,13-26.3
		c5.1-10.9,10.8-24.5,17.3-40.8c6.5-16.2,13.4-36.3,20.8-60c3.6-11.9,7.4-24.8,11.2-38.9c3.8-14,7.7-29.3,11.6-45.7
		c3.8-16.8,7.6-34.9,11.4-54.2c3.8-19.4,7.2-40.4,10.2-63.1c1-8,1.9-15.6,2.7-22.7c0.8-7.1,1.2-13.2,1.3-18.3l-0.2-3
		c0-0.2,0-0.5,0.1-0.8c0-0.3,0.1-0.6,0.1-0.8c0.2-2.3,0.2-5,0.2-8.1c-0.1-3.2-0.2-6.2-0.6-9c-0.1-1.6-0.3-3.6-0.7-5.9
		c-0.4-2.3-1.1-4.9-2.2-7.7c-0.7-2-2.2-4.3-4.4-6.9c-2.2-2.6-4.8-4-7.9-4.3c-2.1-0.1-4.1,0.5-5.9,1.6c-1.8,1.1-3.2,2.2-4.2,3.3
		c-0.6,0.6-1.1,1.4-1.5,2.4c-0.5,1-1,2.4-1.4,4.2l-0.5-0.6l0-0.6c-0.2,0.8-0.5,1.6-0.9,2.2c-0.3,0.6-0.6,1.4-0.9,2.2l-0.2,0.3
		l-0.4,1.2c-0.2,0.8-0.6,1.9-1,3.1c-0.5,1.3-0.8,2.2-1.1,2.8l-1.1,3.7c-0.9,2.7-1.7,5.5-2.5,8.4c-0.8,2.9-1.6,5.8-2.3,8.7l0-0.3
		c-1,3.1-1.9,6.4-2.8,9.7c-0.8,3.3-1.8,6.8-2.7,10.3c-0.6,2.3-1.2,4.4-1.8,6.2c-0.6,1.9-1.2,4-1.8,6.2c-0.1,0.2-0.2,0.5-0.3,0.8
		c-0.1,0.3,0,0.4,0.1,0.1c-0.4,0.8-0.7,1.7-0.8,2.5c-3.6,12.7-7.6,27.2-12,43.5s-9.1,33.7-14.2,52.3c-1.6,5.8-3.2,11.6-4.7,17.3
		c-1.5,5.7-3.2,11.6-4.9,17.6c-2.3,8.5-4.8,17.6-7.5,27.3c-2.6,9.7-5.2,19.5-7.8,29.5c-0.4,1.5-0.8,3.2-1.4,5.1
		c-0.6,2-1,3.7-1.4,5.1c-8.8,31.6-16.2,59.3-22.4,83c-6.2,23.7-11.8,44.9-16.6,63.6c-0.7,0.9-1.4,1.7-2.1,2.4
		c-0.7,0.8-1.2,1.3-1.5,1.8c-0.4,0.4-1,1.1-1.7,2.1c-0.7,1-1.3,1.8-1.9,2.4c-1.4,1.8-2.8,3.7-4,5.6c-1.6,0.9-3.2,2.2-4.7,3.8
		c-1.1,1.1-2.1,2.3-3,3.6c-0.8,1.3-1.8,2.8-2.9,4.5c-0.4,0.4-0.8,0.9-1.2,1.3c-0.4,0.4-0.7,0.9-1,1.3c-1.9,2.8-4.4,6.2-7.5,10.3
		c-3.1,4.1-6.8,8.9-11.3,14.5c-4.7,5.4-11,12.3-19.1,20.7c-8.1,8.4-18,17.5-29.6,27.5l0.2-0.3c-6.2,5.1-13,10.5-20.5,16.3
		c-7.5,5.8-15.5,11.3-23.9,16.5c-9.2,5.9-19,11.6-29.6,17.2c-10.6,5.6-21.9,10.7-34,15.3c-12.9,4.9-25.4,8.7-37.4,11.5
		c-12.1,2.8-23.8,4.5-35.1,5.3c-2.1,0.1-4.5,0.2-7.1,0.3c-2.7,0.1-5,0.1-7.2,0c-6.4,0-12.5-0.4-18.5-1.3c-6-0.9-11.4-2.2-16.4-3.9
		c-4.9-1.5-9.6-3.5-13.9-5.9c-4.3-2.4-8.2-5.3-11.6-8.8c-2.8-2.7-4.9-5.8-6.4-9.3c-1.5-3.5-2.3-7-2.4-10.4
		c-0.2-10,0.3-19.1,1.4-27.4c1.3-7.4,3.1-14.1,5.4-20c1.3-3.4,2.7-6.5,4.2-9.4c0.1-0.1,0.2-0.2,0.3-0.4c0.7-0.9,1.3-1.6,1.9-2.3
		c0.6-0.7,1.1-1.2,1.7-1.6c2.4-2.4,4.3-4.3,5.7-5.7c1.3-1.4,2.4-2.6,3.1-3.4c0-0.2,0-0.3,0.3-0.3c0,0,0.1-0.1,0.3-0.3
		c2-2.4,3.4-5.2,4.4-8.4c0.1-0.4,0.2-0.8,0.3-1.3c1.2-1.1,2.5-2.1,3.6-2.8c1.5-0.9,2.8-1.7,3.9-2.4c0.7-0.5,1.3-0.8,1.9-1
		c0.5-0.2,1-0.5,1.4-0.7c0.6-0.4,1.2-0.8,2-1.2c0.7-0.3,1.2-0.5,1.3-0.5c0.3-0.2,0.8-0.6,1.4-1c0.6-0.4,1.1-0.8,1.4-1l-0.4,0.6
		c4-2.1,6.9-5.5,8.8-10.4c1.9-4.8,2.3-9.7,1.2-14.8c-0.6-2.6-1.6-5-3-7.2c-1.4-2.2-3-3.9-4.9-5.2c-1.9-1.3-4-2.1-6.3-2.2
		c-2.3-0.2-4.5,0.2-6.7,1.2c-1.3,0.3-2.3,0.9-2.8,1.7c-1.3,0.9-3.1,2.2-5.4,3.9c-2.3,1.7-5.3,4.2-9.1,7.5c-2.9,2.6-5.8,5.5-8.8,8.5
		c-2.8,2.8-5.3,5.9-7.5,9c-1.5,2-3.6,4.6-6.2,7.8c-3.5,4.3-8.4,10.2-14.8,17.8c-3.5,4.3-7.9,9.3-13,14.9
		c-5.2,5.6-11.4,12.1-18.7,19.3c-6.8,7-14.6,14.2-23.3,21.8c-8.7,7.6-18.4,15.5-29.3,23.8l0.2,0c-10.9,7.8-20.5,14.1-28.8,18.8
		c-8.3,4.7-15.7,8.6-22.2,11.7l0.2,0c-5.6,2.6-10.8,4.7-15.6,6.3c-4.8,1.6-9.5,3.1-14.2,4.4c-4.3,1.3-8.3,2.3-11.9,3
		c-3.6,0.7-7.6,1.4-11.9,2.1l-2.5,0.2c-4.2,0.7-8.8,1.4-13.8,2.2c-5,0.8-10.9,1.3-17.5,1.6c-23.1,0.8-43.3-1.9-60.5-8.2
		c-4-1.4-7.9-3.1-11.7-5.3c-3.8-2.1-7.3-4.5-10.7-7.2c-6.3-4.7-10.7-10.1-13.1-16c-2.1-4.6-3.7-9-4.8-13.2c-1.1-4.2-1.8-8.3-2-12.1
		c-0.1-1.6-0.1-3.2,0-4.6c0.1-1.4,0.3-3,0.5-4.6c0.9-4.4,2.4-8.1,4.4-11.3c1.2-2,2.5-3.8,3.7-5.4c5.4-1.9,10.3-3.9,14.7-5.8
		c6.6-2.9,13.1-5.9,19.4-8.9c10.1-4.4,19.5-9,28.4-13.6c8.9-4.7,17.2-9.5,25-14.4c0.4-0.2,1-0.6,1.6-1.2c0.6-0.5,1.1-0.9,1.6-1.2
		l-0.7,0.4c4-3,8.3-6.2,12.8-9.6c4.5-3.4,8.9-7.1,13.3-11.2c1.3-1.3,2.7-2.8,4.1-4.5c1.4-1.7,2.9-3.7,4.5-6.1
		c1.7-2.6,3.1-5.6,4.5-8.9c1.3-3.4,1.9-7.7,1.7-13.1l0.2,0.5c0.1-5.9-0.9-10.8-3.1-14.8c-2.2-3.9-4.8-7.2-7.8-9.9
		c-1.7-1.4-3.6-2.8-5.7-4.3c-2.1-1.4-4.3-2.8-6.6-4c-4.1-2-8.8-3.6-14-4.7c-5.2-1.1-10.4-1.8-15.7-1.9c-5.4,0-10.9,1-16.3,3
		c-5.4,2-10.8,4.8-16.1,8.3c-10.2,6.8-20,16.4-29.5,28.6c-9.5,12.2-18.7,25.9-27.7,41.2c-1.8,3.2-3.6,6.5-5.3,9.8
		c-1.7,3.3-3.3,6.5-4.9,9.6c-2.2,0.8-3.9,7.9-5.8,12.8c-0.1,0-0.3,0.1-0.4,0.1c-4.6,1.6-9.9,2.9-15.9,3.9c-0.6,0-1.4,0.1-2.4,0.3
		c-1,0.2-1.8,0.3-2.6,0.3c-2.2-1.3-8-3.2-17.4-5.7c-0.3,0-0.5,0-0.6-0.1c-0.1-0.1-0.3-0.1-0.6-0.1c-0.6,0-1.4-0.1-2.3-0.5
		c-1.2-0.3-2.6-0.7-4-1.1c-1.5-0.4-3-0.8-4.5-1.1l-7.6-1.4l0,0.3c-0.1,0-0.3,0-0.3-0.1c-0.1-0.1-0.4-0.1-0.4-0.1
		c-6.1-3-16.9,9.3-16.9,9.3c-0.4,0.4-0.9,0.8-1.3,1.2c-0.4,0.3-0.8,0.7-1.1,1.1c-0.9,0.9-1.7,1.8-2.5,2.6c-0.8,0.9-1.5,1.6-2.2,2.3
		c-0.1,0.2-0.4,0.5-0.6,0.8c-0.3,0.3-0.5,0.6-0.6,0.8c0.1-0.2-0.3,0.1-1.3,1c-3.7,3.7-7.7,7.7-12.1,12.1c-4.3,4.4-8.6,8.7-12.9,13.1
		c-10.7,10.5-21.4,20.9-32,31.1c-10.6,10.3-20.4,19.4-29.3,27.3c-4.6,4.2-9,8-13.1,11.4c-4.2,3.4-8.4,6.7-12.6,9.8
		c-2,1.6-4,3.1-6,4.5c-1.9,1.4-4,2.8-6,3.9l-0.2,0c-1.9-3.8-3.6-7.3-5-10.6c-1.4-3.3-2.7-6.4-3.8-9.4c-1.8-4.2-3.4-8.2-5-12.1
		c-1.5-3.9-3-7.6-4.5-11.2c-1.8-4.6-3.5-8.8-4.9-12.7c-1.5-3.9-2.8-7.5-4.1-10.9c-0.5-1.4-1-2.7-1.5-4c-0.5-1.3-0.9-2.6-1.3-3.8
		l0.3,1.5c-0.1-0.2-0.1-0.4-0.2-0.6c-0.4-0.8-0.5-1.6-0.6-2.4c-0.2-0.4-0.3-0.8-0.4-1.4c-0.1-0.5-0.2-0.9-0.4-1.3
		c-4.3-12-7.5-21.3-9.6-27.8c-2.2-6.5-3.7-11.1-4.6-13.9c0.1-3.6-0.5-7-1.8-10.3c-2.1-5-5.3-8.3-9.4-9.8c-4.1-1.6-8.2-1.1-12.3,1.4
		l-0.2,0.3c-1.6,1.1-3,2.2-4.1,3.2c-1.1,1-2.4,2-3.9,3.2l-0.2,0c-1.3,1.1-2.8,2.4-4.6,3.8c-1.8,1.4-3.9,3-6.4,4.8
		c-0.6,0.5-1.2,0.9-1.7,1.3c-0.6,0.5-1,0.8-1.3,1c-2.9,2.2-6.1,4.5-9.5,6.9c-3.5,2.4-7.8,5.1-12.9,8.3c-2.9,1.8-6.3,3.8-10.2,6
		c-3.9,2.2-8,4.5-12.4,6.9c-4.4,2.4-8.9,4.8-13.5,7.1c-4.6,2.3-9.1,4.5-13.6,6.7c-5.9,2.6-11.9,5-18.1,7.3
		c-6.1,2.2-12.6,4.4-19.2,6.4c-6.7,2.1-14.3,4-22.9,5.9c-8.6,1.9-18.8,3.3-30.5,4.2c-4.5,0.3-9.3,0.5-14.4,0.7
		c-5.1,0.2-9.3,0.3-12.8,0.3c-3,0-5.9,0.1-8.6,0.2c-2.7,0.2-5.3,0.3-7.7,0.5c-1.1,0.1-2.1,0.1-3.1,0c-1,0-1.9,0-2.8,0l-5.4,0.3
		c-6.4-2.7-11.6-3.4-15.7-2.1c-4.1,1.3-7.4,3.5-10,6.8c-2.6,3.2-4.6,6.9-6,11.1c-1.4,4.2-2.6,7.9-3.6,11.3c-0.7,2.7-2.1,5.7-4,8.8
		c-1.9,3.2-4.5,7.4-7.6,12.7c-2.6,4.3-5.4,8.6-8.4,13.1c-3,4.5-6.2,8.5-9.6,12c-1.9,1.7-3.9,3.6-6.1,5.4c-2.2,1.9-4.7,3.5-7.3,4.9
		c-1.6,0.9-3.2,1.7-4.6,2.3c-1.5,0.6-2.9,0.9-4.2,1c-1.4,0.1-2.6-0.1-3.7-0.7c-1.9-1.1-3.4-3.1-4.5-5.8c-1.1-2.8-1.9-5.7-2.4-8.8
		c-0.9-4-1.4-8-1.7-11.9c-0.2-3.1-0.2-6.7,0-11c0.1-7.8,0.5-15,1.1-21.5c0.6-6.6,1.8-12.4,3.4-17.4c1.3-5,2.9-9.2,4.8-12.6
		c1.8-3.4,3.7-6.2,5.7-8.6c1.9-2.6,3.9-4.7,5.8-6.3c1.9-1.7,3.7-3,5.3-4.2l-0.2,0.3c2.2-1.2,4.4-2.4,6.7-3.6
		c2.3-1.3,4.2-2.1,5.9-2.7c0.5,0,0.7-0.1,0.7-0.2c0-0.1,0.1-0.2,0.2-0.2c0.3,0,0.6-0.1,1-0.2c0.4-0.1,0.7-0.2,1-0.2
		c0.5,0,0.9-0.1,1.5-0.1c0.5,0,0.9-0.2,1.2-0.4l0.2,0c0.3,0,0.7-0.1,1.1-0.2c0.4-0.1,0.8-0.2,1.1-0.2c3.9-1.3,6.9-4,9.3-8.1
		c2.3-4.1,3.3-8.8,3-14.1c-0.2-3.1-0.9-5.8-2.1-8.3c-1.2-2.5-2.8-4.6-4.6-6.3c-1.8-1.7-3.9-2.9-6.2-3.6c-2.3-0.7-4.7-0.6-7,0.1
		c-0.7,0.2-1.9,0.7-3.4,1.3c-1.6,0.6-4,1.7-7.4,3.4c-2.9,1.6-6.5,3.8-10.7,6.5c-4.2,2.7-8.9,6.8-14,12.2l0.2-0.3
		c-2.5,2.6-5.1,5.8-7.7,9.5c-2.6,3.7-5.1,8.1-7.7,13.2c-2.3,4.9-4.3,10.2-6.1,16.2c-1.8,6-3.2,12.6-4.3,20.1l0-0.3
		c-0.7,3.9-1.1,7.6-1.5,11.1c-0.3,3.5-0.5,6.9-0.6,10.2c-0.1,3.5-0.1,7.3-0.1,11.3c0,4.1,0.2,8.5,0.5,13.2c0.4,4.3,0.9,8.6,1.5,12.9
		c0.6,4.4,1.6,9.2,3.2,14.4l0-0.3c1.6,5.6,4,11.3,7.3,16.9c3.3,5.6,7.6,9.9,12.8,12.9c2.7,1.7,5.5,2.6,8.6,2.8
		c0.6,0.2,1.2,0.2,1.8,0.2c0.6,0,1.2-0.1,1.8-0.1c0.3,0,0.9-0.1,1.8-0.1c0.9-0.1,1.6-0.2,2.2-0.4c2.1-0.3,4-0.8,5.7-1.4
		c1.7-0.6,3.4-1.4,5-2.3l-0.2,0c6.5-3.3,12-7.2,16.5-11.8l-0.2,0c4.2-3.7,8-7.9,11.6-12.4c3.6-4.5,6.6-8.6,9.1-12.2l0,0.3
		c3.5-5.1,6.8-10.6,10.1-16.3c3.3-5.7,6.1-10.7,8.6-14.9c0.3-0.4,0.6-1,0.9-1.6c0.3-0.6,0.6-1.2,0.9-1.6c0.3-0.4,0.5-0.8,0.7-1.3
		c0.2-0.4,0.4-0.8,0.7-1.3c0.1-0.4,0.4-0.9,0.8-1.6c0.1-0.4,0.4-0.9,0.8-1.6c0.1-0.2,0.2-0.4,0.3-0.6c0.1-0.2,0.2-0.4,0.3-0.6
		c0.7,0,1.2-0.1,1.5-0.1c0.2,0,1,0,2.2,0.2c0.3,0,0.8,0,1.4,0.1c0.6,0.1,1.1,0.1,1.6,0c4.6,0.1,9.8,0.2,15.8,0.2
		c6,0,13.1-0.1,21.2-0.4c13-0.4,25.3-1.9,36.8-4.4c11.5-2.5,22-5.3,31.5-8.4c7.1-2.3,14-4.8,20.8-7.6c6.7-2.8,12.9-5.3,18.5-7.8
		c1.8-0.7,3.7-1.5,5.7-2.3c2-0.8,3.8-1.6,5.4-2.3c13.3-5.5,24.8-10.7,34.5-15.5c9.7-4.8,18.1-9.1,25.1-12.8
		c6.6-3.5,12.4-6.6,17.4-9.4c5-2.8,8.9-5,11.8-6.9c0.2-0.1,0.4-0.2,0.6-0.4c0.5,0.9,0.9,1.8,1.4,2.7l-0.2-0.3
		c2.1,4.8,4.8,11.1,8.1,19c3.3,7.9,7.3,17.2,11.9,27.9c0.4,0.8,0.6,1.4,0.8,1.9c0.2,0.5,0.4,1.2,0.8,2c0.7,1.6,1.4,3.2,2.2,4.8
		c0.8,1.6,1.5,3.3,2.3,5.1c0.3,0.6,0.6,1.2,0.8,2c0.2,0.7,0.5,1.3,0.8,1.9c1.4,3.2,2.9,6.6,4.4,10.3c1.5,3.7,3.1,7.2,4.6,10.6l0-0.3
		c1.6,3.6,3.3,7.3,5.1,11.2c1.8,3.9,3.8,7.8,5.9,11.8c0.3,0.8,0.6,1.5,0.8,2.2c0.2,0.7,0.5,1.3,1,1.9c0.2,0.2,0.3,0.4,0.4,0.7
		c0.1,0.3,0.2,0.5,0.4,0.7c0.1,0.8,0.5,1.5,1.3,2.1c0.8,1,1.3,1.7,1.5,2.1c0.2,0.2,0.4,0.5,0.7,1c0.3,0.5,0.6,0.8,0.7,1l1.2,1.5
		l9.2,4.6c0.6,0.2,1,0.2,1.1,0.1c0.1-0.1,0.5-0.2,0.9-0.2c2.1-0.5,3.9-1.2,5.6-2c1.6-0.8,3.3-1.8,5-2.9c0.9-0.1,1.6-0.5,2.2-1.4
		c0.2,0,0.3-0.1,0.4-0.3l0.2,0c6.5-4.7,13.2-10.1,20.1-16.1c6.9-6.1,14.2-12.7,21.9-19.9c0.3-0.4,0.6-0.7,1.1-0.8
		c0.4-0.1,0.8-0.4,1.1-0.8c0.3-0.4,0.6-0.7,1.1-1c0.4-0.2,0.8-0.6,1.1-1c8-7.7,16.4-15.6,25.2-24c8.8-8.3,18-17.3,27.5-26.9l0.4-0.6
		c0.3-0.2,0.5-0.4,0.8-0.5c0.2-0.1,0.5-0.4,0.7-0.8c4.1-3.9,8.3-7.9,12.3-12c4.1-4,7.9-7.9,11.4-11.6c0.3-0.2,0.4-0.4,0.4-0.5
		c0-0.1,0.1-0.3,0.4-0.5c0.9-0.9,1.7-1.7,2.6-2.5c0.9-0.8,1.7-1.7,2.5-2.8c0.7-0.9,1.7-1.8,2.9-3c1.2-1.1,2.2-2.1,2.9-2.9
		c0.1,0,0.4-0.2,0.6-0.7c0.4,0,0.8-0.2,1.1-0.7c5.3,4,10.3,6.7,15.1,8.1c4.8,1.4,9.4,2.3,13.8,2.7c4.3,0.4,8.7,0.4,13.2,0.1
		c1.7-0.1,3.4-0.3,5.3-0.5c1.9-0.2,3.6-0.5,5.1-0.8c0.7-0.1,1.4-0.3,2.1-0.4c-0.3,1.7-0.5,3.4-0.6,5.3c-0.3,3.1-0.2,7,0.1,11.7
		c0.4,6.3,1.5,12.7,3.1,19.1c1.7,6.4,4,12.8,6.8,19.2l0-0.3c2.3,5.6,4.9,10.3,7.7,14.2c2.8,3.9,5.9,7.4,9.1,10.5
		c2.6,2.7,5.7,5.4,9.3,8c3.6,2.6,6.8,4.9,9.6,6.8c6.5,3.9,14.6,7.8,24.4,11.8c9.8,4,20.7,6.8,32.6,8.6c5.7,0.9,11.1,1.4,16.3,1.6
		c5.2,0.2,10,0.1,14.4-0.1c2.6-0.2,5.2-0.4,7.8-0.6c2.6-0.3,5-0.7,7.1-1.2c5.7-1.2,10.9-2.4,15.8-3.6c4.8-1.2,9.4-2.6,13.7-4.1
		c4.7-1.9,10-4.1,16-6.5c5.9-2.4,12.6-5.4,20.1-8.9c7.5-3.7,16.2-8.3,26.1-13.6c9.9-5.3,21.6-12.6,35.3-21.8
		c14.4-9.9,26.7-19.2,37.1-28.1c10.3-8.8,19.4-16.7,27.1-23.8c1.7-1.6,3.3-3.2,4.9-4.7c-0.4,5.9-0.4,12-0.2,18.2
		c0.1,3.3,0.3,6.7,0.8,10.4c0.5,3.7,1.2,7.2,2.4,10.6l0-0.6c2,7.8,4.9,14.4,8.8,19.7c3.8,5.3,8.1,9.8,12.9,13.6
		c4.8,3.8,10,6.9,15.6,9.5l-0.3-0.3c9.8,4.7,20.4,7.8,31.6,9.2c11.2,1.4,23.2,1.8,35.8,1c12.7-1,25.5-3,38.6-5.9
		c13.1-3,26.5-7,40.2-12.2c14.1-5.4,26.9-11.2,38.7-17.4c11.7-6.2,22.6-12.5,32.7-18.9c10.3-6.6,19.6-12.9,27.8-18.9
		c8.2-6,15.5-11.7,22-17l-0.2,0c11.5-9.5,21.1-17.8,28.6-24.9c7.6-7.1,13.8-13.3,18.8-18.5c0.3-0.4,0.7-0.9,1.3-1.4
		c0.6-0.5,1.1-1,1.5-1.5c0.1-0.2,0.3-0.4,0.6-0.7c0.3-0.2,0.5-0.4,0.6-0.6l1.9-2l0-0.3c0.1-0.1,0.1-0.1,0.2-0.2
		c-0.3,1.2-0.7,2.5-1,3.9c-0.9,3.3-1.7,6.6-2.7,9.8c-0.9,3.2-1.8,6.6-2.7,10.1l0.2,0c-0.7,2.9-1.5,5.9-2.4,9.1
		c-0.9,3.1-1.6,6.2-2.4,9.3l0.2-0.3c-1.6,6-3.2,12.2-4.7,18.4c-1.6,6.2-3.2,12.7-4.9,19.3l0-0.3c-0.6,2.5-1.3,5-2,7.5
		c-0.8,2.5-1.4,5.2-2,8.1l-1.4,2.5c-0.6,0.4-1,0.7-1.3,0.7c-0.3,0.2-0.5,0.3-0.7,0.4l0.4,10.4l0.1,5.8l13.3,16
		c0.1-0.2,0.4-0.9,0.7-2c0.3-1.1,0.7-2.3,1.2-3.6c2.4-0.6,4.2-2.2,5.6-4.9c1.3-2.7,2.1-4.6,2.4-5.7l0.4-0.6c2-2.4,3.3-4,4.1-4.9
		c0.8-0.9,1.6-1.7,2.5-2.6c0.8-1.1,1.6-2.1,2.4-3.1c0.8-1,1.5-1.7,2.2-2.1c3.7-4.3,7.4-8.6,11.3-13c3.9-4.3,8.1-8.9,12.6-13.7
		c8.9-9.8,18.6-19.9,29-30.5c10.4-10.6,21.9-22.1,34.4-34.5c5-5,10.1-10.1,15.4-15.2c5.3-5.1,10.8-10.5,16.5-16.2
		c0.9,2.8,1.9,5.7,2.9,8.7c1,3,2.1,5.9,3.2,8.7c5,12.4,11.1,24.8,18.3,37.2c7.8,13.2,16.5,24.8,26.2,34.7
		c9.6,9.9,19.6,18.1,29.8,24.4c9.8,5.7,19.8,10.1,30.3,13c10.4,2.9,20.4,4.5,30,4.7c2.1,0.3,4.5,0.3,7.2,0.2c2.6-0.2,5-0.3,7.1-0.4
		c6.9-0.4,13.6-1.3,19.9-2.5c6.4-1.2,12.4-2.6,18-4.2c7.7-2.3,15.1-5,22.2-8.1c7.1-3.1,14-6.3,20.7-9.6
		c12.5-6.3,24.2-13.1,35.1-20.3c10.9-7.2,20.4-13.8,28.5-19.9c8.5-6.5,16.3-12.6,23.3-18.3c7-5.7,13.2-11,18.6-15.9
		c9.6-8.6,18.1-16.4,25.6-23.4c0.8-0.7,1.5-1.4,2.3-2.1c-0.3,3.5-0.6,7.1-0.8,10.9c-0.5,7.6-0.2,16,0.8,25.1
		c0.6,4.3,1.7,9.1,3.3,14.5c1.6,5.4,3.7,10.6,6.1,15.6c5.2,9.9,12.4,18,21.5,24.4c8.5,5.6,17.7,9.2,27.5,10.7c9.8,1.5,20,1.9,30.5,1
		c20.6-1.9,43-7,67.2-15.4c24.2-8.4,50.6-19.5,79.4-33.3c28.4-13.8,52.8-26.5,73.5-38.2c20.6-11.6,38.5-21.8,53.5-30.5
		c15.1-8.7,27.5-16,37.4-21.8c9.8-5.8,18-10.6,24.4-14.3c4.1-2.3,7.5-4.2,10.2-5.8c0.5-0.3,0.9-0.5,1.4-0.8c0.5,0,1.1,0,1.7,0
		c-0.5,4.7-0.9,8.6-1.2,11.6c-0.3,3-0.6,5.9-0.8,8.6c-0.2,2.8-0.4,6-0.6,9.5c-0.2,3.6-0.4,8.4-0.7,14.3c-0.2,5.7-0.4,11.7-0.5,18
		c0,6.2,0.1,13,0.6,20.4c0.2,3.9,0.5,7.4,0.9,10.7c0.4,3.2,0.8,6.5,1.3,9.7c0.5,2.6,1.1,5.4,1.9,8.3c0.8,2.9,1.7,5.9,2.8,8.9
		c1.3,3,2.9,6,4.9,9c2,3,5.1,6.3,9.3,9.7c1.7,0.7,3.1,1.1,4,1.1c1,0,2.1,0,3.3,0c0.5,0,0.8,0,1,0.1c0.2,0.1,0.5,0.1,0.8,0.1l4.5-0.3
		c0.3,0,0.6-0.1,1-0.2c0.4-0.1,0.7-0.2,1-0.2c0.9-0.1,1.6-0.2,2.1-0.3c0.5-0.1,1-0.3,1.4-0.5c1.6-0.5,3.2-0.9,4.8-1.1
		c1.6-0.2,3.2-0.5,4.8-1.1c8-2.3,16.4-5.1,25.3-8.3c8.8-3.2,17.2-6.4,25.2-9.5c7.7-3.1,15.1-6.3,22.2-9.3c7.1-3.1,14-6.2,20.7-9.3
		c13.1-6.1,25.6-12.2,37.5-18.1c11.9-6,22.7-11.6,32.3-16.9c19.9-10.9,36.8-20.6,50.7-29.2c13.9-8.6,25.6-16.1,35-22.4
		c0.2-0.1,0.3-0.2,0.5-0.3c-0.8,1.8-1.6,3.7-2.4,5.7c-1.3,3.1-2.7,6.7-4.1,10.7c-1.4,4-2.8,7.9-4.2,11.9c-1.2,4.2-2.5,8.5-3.6,13.1
		c-1.2,4.6-2.3,10.3-3.3,17.1c-0.5,3.3-0.9,6.9-1,10.9c-0.1,4,0.2,8.1,0.9,12.4c0.8,5.3,2.6,10.4,5.5,15.3c1.5,2.4,3.2,4.4,5.2,6.1
		s3.8,3.1,5.5,4.3l-0.3-0.3c3.3,2.2,6.9,3.6,10.8,4.1c3.9,0.5,7.4,0.4,10.6-0.2c2.5-0.6,5.4-1.6,8.4-3c3.1-1.4,5.9-3,8.3-4.8
		c10-7,19.3-15.4,27.8-25.5c8.5-10,17-20.9,25.3-32.7c8.5-12.2,17-25.6,25.7-40.2c8.7-14.6,17.7-30.8,27-48.6
		c-0.2,1.7-0.4,3.8-0.7,6.3c-0.3,2.6-0.7,5.5-1.3,8.8c-1.8,15.2-3.5,30.8-5.1,46.6c-1.6,15.8-2.6,30-2.9,42.5c0,0.4,0,0.8,0,1.2
		c-0.1,0.4-0.1,0.8,0,1.2l0.1,1.2c0,3.1,0.3,6.5,0.7,10.4c0.4,3.9,1.2,7.5,2.3,10.9l0-0.3c0.6,2,1.6,4.2,3,6.4
		c1.4,2.3,3.2,4,5.5,5.3c1.3,0.7,2.3,1.1,3,1.2c0.8,0.1,1.6,0.1,2.5,0l1.1,0.2l2.7-0.2c1.2-0.3,2.4-0.6,3.7-0.8
		c1.3-0.3,2.6-0.7,4.1-1.2l-0.2,0.3c2.1-0.7,4.7-1.8,7.9-3.2c3.2-1.4,6.4-3.1,9.8-4.9c0.6-0.5,1.2-0.7,1.9-0.9
		c0.7-0.1,1.3-0.4,1.9-0.9l-0.2,0c0.3-0.2,0.6-0.3,0.9-0.4c0.3,0,0.6-0.1,0.9-0.4l2-1c7.5-3.9,14.7-8,21.7-12.1
		c7-4.1,13.7-8.1,20.1-12c8.2-5.2,15.9-10.2,23.4-15.1c7.4-4.9,14.4-9.4,20.9-13.7l7.9-5.1c2.2-1.6,4.3-3,6.4-4.4
		c2.1-1.4,4.2-2.7,6.2-4.1c7.5-5.2,14.7-10,21.3-14.4c6.7-4.4,12.8-8.5,18.3-12.3c2.9-1.8,5.8-3.7,8.6-5.6c2.8-1.9,5.5-3.7,7.9-5.6
		c3.5-2.5,6.7-4.7,9.8-6.6c3.1-1.9,5.8-3.8,8.3-5.6c4.8-3.2,8.8-5.8,12.1-8c3.3-2.2,6-4,8.3-5.4c2.3-1.5,4.1-2.6,5.5-3.4
		c1.4-0.8,2.6-1.5,3.6-2.2c0.6-0.4,1.1-0.8,1.5-1c0.4-0.2,0.9-0.6,1.5-1c0.4-0.4,1-0.9,1.6-1.3c0.7-0.4,1.3-0.9,2.1-1.4
		c3.5-2.5,6.5-5.3,9.1-8.6c2.6-3.2,4.7-6.5,6.3-9.7c1.6-3.3,2.6-6.4,3-9.5C3359.2,443.5,3359,440.8,3358.1,438.4z M3138,294.1
		c0.5-2.1,0.8-3.6,1.1-4.7c0.2-1,0.4-1.9,0.5-2.5c0.1-0.6,0.3-1.7,0.7-3.3c0.3-1.6,0.9-3.8,1.5-6.7c0.6-2.9,1.6-7.1,2.9-12.7
		c6.7-29.7,13.1-57.4,19.1-83.2c6-25.8,11.3-47.6,16-65.3c2.4-9.3,4.8-18.1,7.1-26.2c2.3-8.1,4.7-16.1,7.2-24.1l6.7-19.7
		c0-4.1,0.2-5.6,0.4-4.5c0.2,1.1,0.5,3.1,0.8,5.9c0.8,8.1,0.7,17.4-0.3,27.9c-1,10.5-2.7,22.1-5,34.7c-2.3,12.6-4.8,24.8-7.5,36.7
		c-5.5,20.4-12.7,44-21.5,71c-8.8,26.9-19.4,55.7-31.7,86.3C3136.9,299.4,3137.5,296.2,3138,294.1z M2678.9,415.1
		c0.1-0.7,0.3-1.1,0.3-1.1s0.1-0.1,0.2-0.5c0.1-0.3,0.5-2,1-5.1c1.7-8.9,3.5-17.6,5.3-26.1c1.8-8.5,3.7-17.1,5.7-25.8l-0.2,0.3
		c0.6-2.5,1.2-5.2,1.9-8.1c0.7-2.9,1.3-5.7,1.9-8.4c0.2-0.8,0.4-1.7,0.5-2.5c0.1-0.8,0.3-1.7,0.5-2.8c0.2-1,0.5-2.3,0.9-3.7
		c0.4-1.4,0.7-2.7,0.9-3.7c2.7-12.2,5.9-26.4,9.7-42.5c3.7-16.1,8-33.7,12.9-52.8c4.5-17.5,9-34.3,13.6-50.7
		c4.6-16.3,9.2-32,13.8-47c2.1-7.1,4.4-14.2,6.9-21.4c2.5-7.2,5-14.1,7.4-20.6c0.7-1.7,1.3-3.4,2.1-5.2c0.7-1.8,1.4-3.5,2.1-5.2
		c0.2,3.7,0.2,7.3,0,11c-0.1,7.4-0.4,14.2-0.8,20.6c-0.4,6.4-0.9,12.2-1.5,17.6l0-0.3c-1.4,11.1-3.1,22.7-4.9,34.7
		c-1.9,12-4,23.6-6.3,34.7c-4,17.8-8.3,35.1-12.7,51.9c-4.5,16.7-9,32.5-13.5,47.2c-4.5,14.7-9,28.2-13.3,40.4
		c-4.4,12.2-8.4,22.9-12.1,31.9c-4.5,10.7-8.6,20.2-12.5,28.4c-3.9,8.2-7.5,15.4-10.9,21.5C2678.5,418.1,2678.8,415.9,2678.9,415.1z
		 M1788.8,390.3c1.5-5.6,2.7-10.4,3.6-14.3c1-3.9,1.8-7.5,2.6-10.7c0.8-3.2,1.6-6.6,2.4-10.1c0.8-3.5,1.8-7.6,3-12.3
		c1.1-4.7,2.6-10.6,4.4-17.9c1.8-7.3,3.6-14.4,5.5-21.3c1.8-7,3.6-13.9,5.3-20.7c1.3-5,2.6-10,3.7-15c1.1-5,2.4-9.9,3.7-14.6
		c0.8-3.5,1.7-6.9,2.5-10.1c0.8-3.2,1.7-6.5,2.6-9.8l0.2,0.3l1.2-5.6c0.3-0.8,0.5-1.6,0.7-2.3c0.2-0.7,0.4-1.5,0.6-2.3l-0.2,0.3
		c2-8.5,4.1-16.8,6.1-24.9c2.1-8.1,4.1-16.1,6.2-24c-3.3,23.7-7.2,46.1-11.6,67.1c-4.4,21-8.7,40.3-12.9,57.7
		c-4.8,17.7-9.6,34.2-14.3,49.7c-4.8,15.4-9.3,29.4-13.5,41.9c-1.6,4.2-2.8,7.6-3.8,10.4c-1,2.7-2.2,6-3.6,9.7
		C1785.6,402.8,1787.4,395.9,1788.8,390.3z M1070.2,556.3c5.2-6.3,10.3-11.6,15.3-15.9c5.7-5.1,12-8.6,18.7-10.6
		c6.8-2,12.6-2.8,17.6-2.3c5,1,9.8,3,14.4,6c-0.6,0.9-1.4,1.7-2.2,2.5c-0.9,0.8-1.7,1.6-2.5,2.4l-0.4,0.5
		c-6.8,4.7-13.3,8.8-19.8,12.3c-6.4,3.4-13.1,6.9-20,10.2c-0.4,0-0.9,0.2-1.4,0.5c-0.6,0.3-1.1,0.6-1.5,0.8
		c-4.5,2.2-9.3,4.4-14.4,6.5c-2.8-0.9-5.7-0.9-8.7,0.3l-0.4,0.3c-1.8,0.7-3.4,1.4-4.9,2.1c-0.7,0.3-1.3,0.6-2,1
		C1061.8,567.1,1065.9,561.5,1070.2,556.3z"/>
</g>
</svg>
